<?xml version="1.0" encoding="UTF-8" standalone="no"?>
<!-- Generator: Adobe Illustrator 18.1.1, SVG Export Plug-In . SVG Version: 6.00 Build 0)  -->

<svg
   version="1.1"
   id="Layer_1"
   x="0px"
   y="0px"
   width="41"
   height="50.249969"
   viewBox="0 0 41 50.249969"
   enable-background="new 0 0 650 450"
   xml:space="preserve"
   xmlns="http://www.w3.org/2000/svg"
   xmlns:svg="http://www.w3.org/2000/svg"><defs
   id="defs110" />




















<path
   fill="#444444"
   d="m 41,18.185011 c 0,8.3 -8.7,15 -19.5,15 -10.8,0 -19.5,-6.7 -19.5,-15 0,-3.2 1.3,-6.2 3.6,-8.7000002 -1.3,-2.6 -1,-7.9 0.4,-9.20000003 1.2,-1.1 5.6,2.70000003 7.3,4.20000003 2.5,-0.9 5.2,-1.4 8.2,-1.4 2.6,0 5.1,0.4 7.4,1.1 1.9,-1.7 5.9,-5.00000003 7.1,-4.00000003 1.2,1.20000003 1.7,5.70000003 0.7,8.50000003 2.7,2.7000002 4.3,5.9000002 4.3,9.5000002 z m -14,15 c 0,0 2.1,0.2 2,4 v 9 c 0,0 0.8,1.6 2,2 0,0 1.1,0.9 -1,1 0,0 -2.1,0.1 -3,-1 -0.9,-1.1 -1,-2 -1,-3 0,-1 0,-6 0,-6 0,0 -0.7,-2 -1,0 v 6 2 c 0,0 0.3,2.2 2,3 0,0 -3.7,0.9 -5,-4 v -7 c -0.4,-1.2 -1,0 -1,0 v 7 c -1.3,4.9 -5,4 -5,4 1.7,-0.8 2,-3 2,-3 v -2 -6 c -0.3,-2 -1,0 -1,0 0,0 0,5 0,6 0,1 -0.1,1.9 -1,3 -0.9,1.1 -3,1 -3,1 -2.1,-0.1 -1,-1 -1,-1 1.2,-0.4 2,-2 2,-2 v -4 c -0.3,-2 -4.4,-1.4 -6,-2 -1.6,-0.6 -4.3,-4.3 -5,-7 -0.7,-2.7 -3,-1 -3,-1 1.7,-3.2 4,-1 4,-1 5,7.9 10,5 10,5 0,0 0,0.2 0,0.6 0.1,-3.4 2,-3.6 2,-3.6 h 5 0.5 0.5 z"
   id="path99" />



</svg>
