<?xml version="1.0" encoding="UTF-8" standalone="no"?>
<!-- Generator: Adobe Illustrator 18.1.1, SVG Export Plug-In . SVG Version: 6.00 Build 0)  -->

<svg
   version="1.1"
   id="Layer_1"
   x="0px"
   y="0px"
   width="50"
   height="47"
   viewBox="0 0 50 47"
   enable-background="new 0 0 650 450"
   xml:space="preserve"
   sodipodi:docname="socials.svg"
   xmlns:inkscape="http://www.inkscape.org/namespaces/inkscape"
   xmlns:sodipodi="http://sodipodi.sourceforge.net/DTD/sodipodi-0.dtd"
   xmlns="http://www.w3.org/2000/svg"
   xmlns:svg="http://www.w3.org/2000/svg"><defs
   id="defs110" /><sodipodi:namedview
   id="namedview108"
   pagecolor="#ffffff"
   bordercolor="#000000"
   borderopacity="0.25"
   inkscape:showpageshadow="2"
   inkscape:pageopacity="0.0"
   inkscape:pagecheckerboard="0"
   inkscape:deskcolor="#d1d1d1"
   showgrid="false" />



<path
   fill="#444444"
   d="m 40,47.000002 v -19.6 c 0,0 -1.1,-4.1 -5,-3.9 -3.9,0.2 -5.2,0.8 -7,2.9 v 20.6 H 18 v -31 h 10 v 4.6 c 0,0 3.3,-6.4 10,-5.9 6.2,0.4 10.8,4.2 11.8,12.3 H 50 v 20 z m -34,-35 c -3.3,0 -6,-2.7000005 -6,-6.0000005 0,-3.3 2.7,-5.9999999741211 6,-5.9999999741211 3.3,0 6,2.6999999741211 6,5.9999999741211 0,3.3 -2.7,6.0000005 -6,6.0000005 z m 5,35 H 1 v -31 h 10 z"
   id="path65" />




















</svg>
